<svg width="54" height="55" viewBox="0 0 54 55" fill="none" xmlns="http://www.w3.org/2000/svg">
<path d="M9.95962 46.5517L6.16949 4.025H47.8305L44.0353 46.5449L26.9747 51.275L9.95962 46.5517Z" fill="#1572B6"/>
<path d="M27 47.6604L40.7869 43.8382L44.0302 7.50294H27V47.6604Z" fill="#33A9DC"/>
<path d="M27 22.9098H33.9019L34.3777 17.5689H27V12.3528H40.0781L39.9533 13.7518L38.6724 28.1259H27V22.9098V22.9098Z" fill="white"/>
<path d="M27.0321 36.4554L27.0085 36.4621L21.2001 34.8928L20.8288 30.7331H15.5925L16.3232 38.9225L27.0068 41.8891L27.0321 41.8824V36.4554V36.4554Z" fill="#EBEBEB"/>
<path d="M33.4581 27.9048L32.8303 34.8894L27.0135 36.4588V41.8858L37.7055 38.9225L37.7848 38.0416L38.691 27.9048H33.4581V27.9048Z" fill="white"/>
<path d="M27.0186 12.3528V17.5689H14.4197L14.3151 16.3961L14.0771 13.7518L13.9523 12.3528H27.0186V12.3528Z" fill="#EBEBEB"/>
<path d="M27 22.9098V28.1259H21.2642L21.1596 26.9531L20.9233 24.3088L20.7985 22.9098H27V22.9098Z" fill="#EBEBEB"/>
</svg>
