<svg width="54" height="54" viewBox="0 0 54 54" fill="none" xmlns="http://www.w3.org/2000/svg">
<path d="M9.9596 45.9017L6.16779 3.375H47.8322L44.0353 45.8949L26.9747 50.625L9.9596 45.9017Z" fill="#E44F26"/>
<path d="M27 47.0104L40.7869 43.1882L44.0302 6.85294H27V47.0104Z" fill="#F1662A"/>
<path d="M27 22.6243H20.0981L19.6223 17.2834H27V12.0673H13.9219L14.0468 13.4679L15.3276 27.8404H27V22.6243V22.6243Z" fill="#EBEBEB"/>
<path d="M27 36.1699L26.9764 36.1766L21.168 34.6089L20.7967 30.4492H15.5604L16.2911 38.637L26.9764 41.6036L27 41.5969V36.1699Z" fill="#EBEBEB"/>
<path d="M26.9814 22.6243V27.8404H33.4041L32.7999 34.6056L26.9814 36.1749V41.6019L37.6751 38.637L37.7528 37.7561L38.9779 24.0249L39.1061 22.6243H26.9814V22.6243Z" fill="white"/>
<path d="M26.9814 12.0673V17.2834H39.5803L39.6849 16.1122L39.9229 13.4679L40.0478 12.0673H26.9814V12.0673Z" fill="white"/>
</svg>
