<svg width="54" height="55" viewBox="0 0 54 55" fill="none" xmlns="http://www.w3.org/2000/svg">
<g clip-path="url(#clip0_3_24)">
<path d="M0 0.300003H54V54.3H0V0.300003Z" fill="#F7DF1E"/>
<path d="M14.1986 45.4263L18.3309 42.9254C19.1282 44.3389 19.8534 45.5349 21.593 45.5349C23.2605 45.5349 24.312 44.8827 24.312 42.3455V25.0913H29.3866V42.4173C29.3866 47.6732 26.3056 50.0656 21.8105 50.0656C17.751 50.0656 15.3947 47.9632 14.1984 45.4259" fill="black"/>
<path d="M32.1428 44.8825L36.2747 42.4902C37.3625 44.2665 38.7762 45.5714 41.2771 45.5714C43.3799 45.5714 44.7206 44.5201 44.7206 43.0701C44.7206 41.3303 43.3432 40.7139 41.0233 39.6993L39.755 39.1551C36.0937 37.5969 33.6652 35.6394 33.6652 31.5072C33.6652 27.701 36.5649 24.801 41.0961 24.801C44.3222 24.801 46.6421 25.9249 48.3093 28.8609L44.358 31.3985C43.4879 29.8399 42.5459 29.2238 41.0959 29.2238C39.6096 29.2238 38.6671 30.1662 38.6671 31.3985C38.6671 32.9209 39.6096 33.5374 41.7844 34.4799L43.053 35.0235C47.3666 36.8723 49.7952 38.7571 49.7952 42.9978C49.7952 47.5654 46.2067 50.0663 41.3857 50.0663C36.6736 50.0663 33.6287 47.8189 32.1426 44.8827" fill="black"/>
</g>
<defs>
<clipPath id="clip0_3_24">
<rect width="54" height="54" fill="white" transform="translate(0 0.300003)"/>
</clipPath>
</defs>
</svg>
